<?xml version="1.0" encoding="UTF-8" standalone="no"?>
<!-- Created with Inkscape (http://www.inkscape.org/) -->

<svg
   xmlns:dc="http://purl.org/dc/elements/1.1/"
   xmlns:cc="http://creativecommons.org/ns#"
   xmlns:rdf="http://www.w3.org/1999/02/22-rdf-syntax-ns#"
   xmlns:svg="http://www.w3.org/2000/svg"
   xmlns="http://www.w3.org/2000/svg"
   xmlns:sodipodi="http://sodipodi.sourceforge.net/DTD/sodipodi-0.dtd"
   xmlns:inkscape="http://www.inkscape.org/namespaces/inkscape"
   width="245mm"
   height="64mm"
   viewBox="0 0 245 64"
   version="1.1"
   id="svg8"
   inkscape:version="0.92.4 (5da689c313, 2019-01-14)"
   sodipodi:docname="socials.svg">
  <defs
     id="defs2" />
  <sodipodi:namedview
     id="base"
     pagecolor="#ffffff"
     bordercolor="#666666"
     borderopacity="1.0"
     inkscape:pageopacity="0.0"
     inkscape:pageshadow="2"
     inkscape:zoom="0.49497475"
     inkscape:cx="284.45375"
     inkscape:cy="280.49029"
     inkscape:document-units="mm"
     inkscape:current-layer="layer1"
     showgrid="false"
     inkscape:window-width="1280"
     inkscape:window-height="961"
     inkscape:window-x="-8"
     inkscape:window-y="-8"
     inkscape:window-maximized="1" />
  <metadata
     id="metadata5">
    <rdf:RDF>
      <cc:Work
         rdf:about="">
        <dc:format>image/svg+xml</dc:format>
        <dc:type
           rdf:resource="http://purl.org/dc/dcmitype/StillImage" />
        <dc:title></dc:title>
      </cc:Work>
    </rdf:RDF>
  </metadata>
  <g
     inkscape:label="Layer 1"
     inkscape:groupmode="layer"
     id="layer1"
     transform="translate(0,-233)">
    <path
       style="fill:#ffffff;stroke-width:0.42836013"
       d="M 26.860218,296.02123 C 19.003992,294.71735 11.28831,289.6498 6.7277708,282.79852 c -7.36289431,-11.06124 -7.33857856,-23.62428 0.067658,-34.95705 3.3816152,-5.17442 9.6752552,-9.88737 15.9571112,-11.9494 10.515685,-3.45175 22.129652,-0.89849 30.328723,6.66763 6.976594,6.43799 10.167846,13.60862 10.136049,22.77528 -0.03139,9.05425 -2.995792,16.17246 -9.262944,22.24259 -7.324303,7.09404 -17.020032,10.11563 -27.09415,8.44366 z m 14.945758,-14.11418 c 2.349157,-0.54129 4.378372,-2.03669 5.915396,-4.35931 l 1.161135,-1.75459 v -10.31192 c 0,-8.79096 -0.104541,-10.50146 -0.708758,-11.59701 -1.114458,-2.02069 -2.169205,-3.05134 -4.231614,-4.13499 -1.84308,-0.96838 -2.26755,-1.00533 -11.551494,-1.00533 -9.249791,0 -9.720424,0.0404 -11.681377,1.00618 -4.072867,2.00559 -5.453027,5.92514 -5.453027,15.48614 0,6.18686 0.665771,10.46152 1.985229,12.74643 2.10023,3.63699 4.456842,4.32308 14.934996,4.34813 4.240766,0.009 8.574046,-0.18054 9.629514,-0.42373 z m -17.982537,-2.91169 c -2.461035,-0.52826 -3.459535,-1.30257 -4.395361,-3.40849 -0.780102,-1.75551 -0.89161,-2.88219 -0.918473,-9.2802 -0.03799,-9.05073 0.2501,-10.93387 1.929722,-12.61348 1.858204,-1.85821 3.570923,-2.1599 12.277253,-2.16256 6.947938,-0.001 8.027192,0.0939 9.655911,0.85955 3.32443,1.56265 3.511493,2.25839 3.511493,13.05976 0,10.4686 -0.159632,11.16839 -2.928457,12.83817 -1.187388,0.71604 -2.362663,0.83033 -9.493984,0.92313 -4.476364,0.0583 -8.81351,-0.0388 -9.638104,-0.21588 z m 11.189001,-5.42479 c 6.207282,-2.19005 7.974936,-9.7783 3.301635,-14.17335 -2.439528,-2.29428 -5.147624,-3.08592 -7.963077,-2.32779 -8.676294,2.33628 -8.664747,14.6836 0.0157,16.74598 2.097856,0.49844 2.616596,0.4711 4.64578,-0.24484 z m -5.234706,-3.25175 c -1.917558,-1.1121 -2.955774,-2.81537 -2.955774,-4.84914 0,-3.43489 2.063388,-5.37423 5.717946,-5.37423 2.164781,0 2.4256,0.11562 3.870313,1.71468 2.006375,2.22081 2.165634,4.769 0.427178,6.83504 -2.220689,2.63913 -4.47388,3.1733 -7.059663,1.67365 z m 12.493351,-12.38026 c 1.015598,-0.54353 1.072743,-2.00362 0.119629,-3.05679 -0.866474,-0.95745 -1.180655,-0.97438 -2.044813,-0.11023 -0.798913,0.79891 -0.879929,2.3756 -0.159099,3.09643 0.629329,0.62932 1.015835,0.64242 2.08429,0.0706 z m 75.259215,38.15409 c -9.60272,-1.75554 -18.222354,-8.32793 -22.491257,-17.14937 -2.052287,-4.24092 -2.803065,-7.35772 -3.008918,-12.49124 -0.179929,-4.48717 -0.08376,-5.40164 0.945934,-8.99556 0.630427,-2.20033 1.328239,-4.18374 1.550694,-4.40756 0.222457,-0.22381 0.404466,-0.65152 0.404466,-0.95045 0,-0.29894 0.846433,-1.85067 1.88096,-3.44829 3.749041,-5.78973 10.719581,-11.1489 16.752701,-12.88005 10.72927,-3.07865 21.25574,-0.89446 29.4709,6.11511 3.62007,3.08881 5.57984,5.60845 7.66692,9.85717 3.87578,7.8901 4.32031,15.29966 1.43914,23.98818 -0.98649,2.97488 -1.43464,3.87849 -3.52197,7.10138 -3.61108,5.57564 -9.46738,9.94734 -16.38555,12.23179 -3.60437,1.19021 -10.99344,1.70724 -14.70402,1.02889 z m 7.81449,-20.14788 0.21418,-7.49629 2.21401,-0.12823 c 1.21771,-0.0706 2.4033,-0.35969 2.63467,-0.64254 0.23135,-0.28287 0.488,-1.67085 0.57032,-3.08445 l 0.14967,-2.57016 -2.97636,-0.21417 -2.97636,-0.21418 0.12036,-2.55744 c 0.0661,-1.40658 0.30045,-2.89394 0.52057,-3.30523 0.41648,-0.7782 3.54901,-1.84706 4.21212,-1.43723 0.2089,0.12903 0.68636,0.11703 1.06101,-0.0267 1.0254,-0.39349 0.96743,-4.79801 -0.0685,-5.19825 -1.56059,-0.60303 -6.71399,-0.32582 -8.12642,0.43712 -3.1423,1.69735 -4.01282,3.38207 -4.36447,8.44661 l -0.25282,3.64107 -2.67725,0.12757 -2.67725,0.12758 v 3.17183 3.17181 l 2.67725,0.12758 2.67725,0.12758 0.11082,7.06795 c 0.061,3.88736 0.20273,7.31738 0.31507,7.62228 0.14759,0.40053 1.06759,0.51938 3.31605,0.42835 l 3.11181,-0.12595 z m 83.7444,20.28446 c -5.74216,-0.92488 -11.21859,-3.47526 -15.73649,-7.32849 -7.08902,-6.04611 -10.72929,-14.04944 -10.76389,-23.66497 -0.0162,-4.26302 0.14248,-5.41272 1.17262,-8.54079 2.55702,-7.76491 6.30781,-12.83484 12.69113,-17.15465 3.33769,-2.25872 5.43187,-3.11912 11.40125,-4.68422 2.27391,-0.59619 9.19239,-0.59619 11.46631,0 0.96974,0.25425 2.5342,0.67188 3.4766,0.92806 0.94238,0.25619 3.25553,1.24968 5.14032,2.20777 4.5347,2.30511 10.8921,8.53324 12.94276,12.67958 3.64179,7.36354 4.53449,14.99773 2.65481,22.70309 -2.43277,9.97254 -11.17482,18.94094 -21.36939,21.92263 -2.77065,0.81035 -10.43821,1.35687 -13.07603,0.93199 z m 3.61064,-17.77932 c 4.15743,-1.3409 9.44044,-5.25035 10.9291,-8.08758 0.36687,-0.69923 0.94616,-1.80142 1.28732,-2.4493 0.86519,-1.64313 1.94988,-5.98505 1.94988,-7.8052 0,-1.16859 0.29777,-1.76702 1.28508,-2.58254 1.57208,-1.29858 1.61806,-1.71344 0.1899,-1.71344 -1.0462,0 -1.06537,-0.0426 -0.42838,-0.95203 1.11755,-1.59551 0.87553,-2.03036 -0.83746,-1.50462 -1.27641,0.39173 -1.78642,0.32077 -3.3667,-0.46846 -2.21538,-1.10641 -4.93229,-1.19684 -6.96586,-0.23185 -1.85833,0.88183 -3.5841,3.7379 -3.5841,5.93151 v 1.62838 l -2.19957,-0.26051 c -2.90894,-0.34452 -7.13717,-2.36448 -9.491,-4.53417 -2.06634,-1.9047 -2.64445,-2.10851 -3.04202,-1.07249 -0.70639,1.8408 0.37716,6.60456 1.50224,6.60456 0.20875,0 0.37955,0.19276 0.37955,0.42836 0,0.2356 -0.4819,0.42835 -1.07089,0.42835 -1.97372,0 -0.82766,3.35764 1.74338,5.10763 1.369,0.93181 1.4456,1.08096 0.74767,1.45535 -0.42769,0.22941 -0.84685,0.47398 -0.93144,0.54348 -0.49381,0.40559 2.05832,2.94998 3.63828,3.62722 1.02852,0.44088 1.87003,0.91369 1.87003,1.05071 0,0.49857 -4.53232,2.34342 -5.78284,2.35388 -1.26618,0.0117 -2.73718,0.63298 -2.34358,0.99158 0.11104,0.10108 1.26195,0.57428 2.55775,1.05148 2.73522,1.0073 9.46423,1.26586 11.96366,0.4597 z"
       id="path858"
       inkscape:connector-curvature="0" />
  </g>
</svg>
